<?xml version="1.0" encoding="utf-8"?>
<!-- Generator: Adobe Illustrator 26.2.1, SVG Export Plug-In . SVG Version: 6.00 Build 0)  -->
<svg version="1.1" id="Layer_1" xmlns="http://www.w3.org/2000/svg" xmlns:xlink="http://www.w3.org/1999/xlink" x="0px" y="0px"
	 viewBox="0 0 432 180" style="enable-background:new 0 0 432 180;" xml:space="preserve">
<style type="text/css">
	.st0{fill:#FFFFFF;}
	.st1{fill:#4298B5;}
	.st2{fill:url(#SVGID_1_);}
	.st3{fill:url(#SVGID_00000161627447081041750480000007782873400230837915_);}
	.st4{fill:url(#SVGID_00000069378043114067289020000002719818827086488449_);}
	.st5{fill:url(#SVGID_00000039130472392036709550000015594043361390331270_);}
	.st6{fill:url(#SVGID_00000044136891813425062720000009090594480832520335_);}
	.st7{fill:url(#SVGID_00000065777735592379467510000005604511087369464975_);}
	.st8{fill:url(#SVGID_00000074443389337129779980000013913404004116371095_);}
	.st9{fill:url(#SVGID_00000132055969764632554700000000930204388905535123_);}
	.st10{fill:url(#SVGID_00000089559549613060605550000002945807697490877359_);}
	.st11{fill:url(#SVGID_00000084531056442999135410000009525628061785211266_);}
	.st12{fill:url(#SVGID_00000068662091009164243130000003936340897515291049_);}
	.st13{fill:url(#SVGID_00000018939208817518973320000013130229961980737173_);}
	.st14{fill:url(#SVGID_00000029043815794698113710000014475060991879702432_);}
	.st15{fill:#E98300;}
</style>
<g id="o">
</g>
<g>
	<polygon class="st0" points="35,0 0,180 397,180 432,0 	"/>
	<g>
		<g id="a">
			<g>
				<g>
					<g>
						<path class="st1" d="M265,61.3c7.7,0,14.6,3.5,19.5,9l11.6-11.8c-8-8.1-18.9-13-31.1-13s-23.1,5-31.1,13l11.6,11.8
							C250.4,64.8,257.3,61.3,265,61.3z"/>
						<path class="st1" d="M284.5,109.7c-4.9,5.5-11.8,9-19.5,9s-14.6-3.5-19.4-9c-4.6-5.1-7.4-12-7.4-19.7s2.8-14.5,7.4-19.7
							L234,58.5c-8,8.1-13,19.2-13,31.5s4.9,23.4,12.9,31.5c7.9,8.1,18.9,13,31.1,13c12.1,0,23.1-5,31.1-13L284.5,109.7z"/>
						
							<linearGradient id="SVGID_1_" gradientUnits="userSpaceOnUse" x1="253.3196" y1="-2570.0754" x2="241.3207" y2="-2582.0842" gradientTransform="matrix(1 0 0 -1 0 -2516)">
							<stop  offset="0" style="stop-color:#4298B5;stop-opacity:0"/>
							<stop  offset="0.1872" style="stop-color:#4195B2;stop-opacity:9.357613e-02"/>
							<stop  offset="0.3375" style="stop-color:#3D8DA8;stop-opacity:0.1687"/>
							<stop  offset="0.4751" style="stop-color:#377F97;stop-opacity:0.2375"/>
							<stop  offset="0.6051" style="stop-color:#2E6B7F;stop-opacity:0.3026"/>
							<stop  offset="0.7298" style="stop-color:#235160;stop-opacity:0.3649"/>
							<stop  offset="0.8504" style="stop-color:#15313B;stop-opacity:0.4252"/>
							<stop  offset="0.9657" style="stop-color:#050C0F;stop-opacity:0.4828"/>
							<stop  offset="1" style="stop-color:#000000;stop-opacity:0.5"/>
						</linearGradient>
						<path class="st2" d="M233.9,58.5l11.6,11.8c4-4.5,9.3-7.6,15.2-8.6l-12.6-12.8C242.8,51.2,238,54.5,233.9,58.5L233.9,58.5z"/>
						
							<linearGradient id="SVGID_00000030488458732970361690000008614887112227754893_" gradientUnits="userSpaceOnUse" x1="-2313.5962" y1="5695.4863" x2="-2325.5962" y2="5683.4863" gradientTransform="matrix(-1 0 0 1 -2037.02 -5569.3101)">
							<stop  offset="0" style="stop-color:#4298B5;stop-opacity:0"/>
							<stop  offset="0.1872" style="stop-color:#4195B2;stop-opacity:9.357613e-02"/>
							<stop  offset="0.3375" style="stop-color:#3D8DA8;stop-opacity:0.1687"/>
							<stop  offset="0.4751" style="stop-color:#377F97;stop-opacity:0.2375"/>
							<stop  offset="0.6051" style="stop-color:#2E6B7F;stop-opacity:0.3026"/>
							<stop  offset="0.7298" style="stop-color:#235160;stop-opacity:0.3649"/>
							<stop  offset="0.8504" style="stop-color:#15313B;stop-opacity:0.4252"/>
							<stop  offset="0.9657" style="stop-color:#050C0F;stop-opacity:0.4828"/>
							<stop  offset="1" style="stop-color:#000000;stop-opacity:0.5"/>
						</linearGradient>
						<path style="fill:url(#SVGID_00000030488458732970361690000008614887112227754893_);" d="M296,121.7L284.4,110
							c-4,4.5-9.3,7.6-15.2,8.6l12.6,12.8C287.1,129.1,292,125.8,296,121.7z"/>
						
							<linearGradient id="SVGID_00000064354145359856489190000012240921245839297714_" gradientUnits="userSpaceOnUse" x1="-2313.7061" y1="-2710.2939" x2="-2325.7061" y2="-2722.2939" gradientTransform="matrix(-1 0 0 -1 -2037.02 -2656.21)">
							<stop  offset="0" style="stop-color:#4298B5;stop-opacity:0"/>
							<stop  offset="0.1872" style="stop-color:#4195B2;stop-opacity:9.357613e-02"/>
							<stop  offset="0.3375" style="stop-color:#3D8DA8;stop-opacity:0.1687"/>
							<stop  offset="0.4751" style="stop-color:#377F97;stop-opacity:0.2375"/>
							<stop  offset="0.6051" style="stop-color:#2E6B7F;stop-opacity:0.3026"/>
							<stop  offset="0.7298" style="stop-color:#235160;stop-opacity:0.3649"/>
							<stop  offset="0.8504" style="stop-color:#15313B;stop-opacity:0.4252"/>
							<stop  offset="0.9657" style="stop-color:#050C0F;stop-opacity:0.4828"/>
							<stop  offset="1" style="stop-color:#000000;stop-opacity:0.5"/>
						</linearGradient>
						<path style="fill:url(#SVGID_00000064354145359856489190000012240921245839297714_);" d="M296.1,58.5l-11.6,11.8
							c-4-4.5-9.3-7.6-15.2-8.6l12.6-12.8C287.2,51.1,292.1,54.4,296.1,58.5z"/>
					</g>
					<g>
						<polygon class="st1" points="159.8,47.2 143,47.2 172.9,132.8 187.3,132.8 						"/>
						<polygon class="st1" points="189.1,82.3 180.1,110.4 187.3,132.8 205.5,82.3 						"/>
						<polygon class="st1" points="217.2,47.2 200.4,47.2 189.1,82.3 205.5,82.3 						"/>
						
							<linearGradient id="SVGID_00000008147626599810705100000001555156802919291047_" gradientUnits="userSpaceOnUse" x1="194.6" y1="3666.6001" x2="194.6" y2="3649.6001" gradientTransform="matrix(1 0 0 1 0 -3567.28)">
							<stop  offset="0" style="stop-color:#4298B5;stop-opacity:0"/>
							<stop  offset="0.1872" style="stop-color:#4195B2;stop-opacity:9.357613e-02"/>
							<stop  offset="0.3375" style="stop-color:#3D8DA8;stop-opacity:0.1687"/>
							<stop  offset="0.4751" style="stop-color:#377F97;stop-opacity:0.2375"/>
							<stop  offset="0.6051" style="stop-color:#2E6B7F;stop-opacity:0.3026"/>
							<stop  offset="0.7298" style="stop-color:#235160;stop-opacity:0.3649"/>
							<stop  offset="0.8504" style="stop-color:#15313B;stop-opacity:0.4252"/>
							<stop  offset="0.9657" style="stop-color:#050C0F;stop-opacity:0.4828"/>
							<stop  offset="1" style="stop-color:#000000;stop-opacity:0.5"/>
						</linearGradient>
						<polygon style="fill:url(#SVGID_00000008147626599810705100000001555156802919291047_);" points="183.7,99.3 189.1,82.3 
							205.5,82.3 199.4,99.3 						"/>
						
							<linearGradient id="SVGID_00000182514172543556436780000007508662424986205573_" gradientUnits="userSpaceOnUse" x1="206.05" y1="3631.48" x2="206.05" y2="3614.48" gradientTransform="matrix(1 0 0 1 0 -3567.28)">
							<stop  offset="0" style="stop-color:#4298B5;stop-opacity:0"/>
							<stop  offset="0.1872" style="stop-color:#4195B2;stop-opacity:9.357613e-02"/>
							<stop  offset="0.3375" style="stop-color:#3D8DA8;stop-opacity:0.1687"/>
							<stop  offset="0.4751" style="stop-color:#377F97;stop-opacity:0.2375"/>
							<stop  offset="0.6051" style="stop-color:#2E6B7F;stop-opacity:0.3026"/>
							<stop  offset="0.7298" style="stop-color:#235160;stop-opacity:0.3649"/>
							<stop  offset="0.8504" style="stop-color:#15313B;stop-opacity:0.4252"/>
							<stop  offset="0.9657" style="stop-color:#050C0F;stop-opacity:0.4828"/>
							<stop  offset="1" style="stop-color:#000000;stop-opacity:0.5"/>
						</linearGradient>
						<polygon style="fill:url(#SVGID_00000182514172543556436780000007508662424986205573_);" points="194.9,64.2 200.4,47.2 
							217.2,47.2 211.6,64.2 						"/>
						
							<linearGradient id="SVGID_00000024680338376793967780000017141444303047336852_" gradientUnits="userSpaceOnUse" x1="-2077.1299" y1="3631.48" x2="-2077.1299" y2="3614.48" gradientTransform="matrix(-1 0 0 1 -1922.98 -3567.28)">
							<stop  offset="0" style="stop-color:#4298B5;stop-opacity:0"/>
							<stop  offset="0.1872" style="stop-color:#4195B2;stop-opacity:9.357613e-02"/>
							<stop  offset="0.3375" style="stop-color:#3D8DA8;stop-opacity:0.1687"/>
							<stop  offset="0.4751" style="stop-color:#377F97;stop-opacity:0.2375"/>
							<stop  offset="0.6051" style="stop-color:#2E6B7F;stop-opacity:0.3026"/>
							<stop  offset="0.7298" style="stop-color:#235160;stop-opacity:0.3649"/>
							<stop  offset="0.8504" style="stop-color:#15313B;stop-opacity:0.4252"/>
							<stop  offset="0.9657" style="stop-color:#050C0F;stop-opacity:0.4828"/>
							<stop  offset="1" style="stop-color:#000000;stop-opacity:0.5"/>
						</linearGradient>
						<polygon style="fill:url(#SVGID_00000024680338376793967780000017141444303047336852_);" points="165.3,64.2 159.8,47.2 
							143,47.2 148.7,64.2 						"/>
						
							<linearGradient id="SVGID_00000128460536641513443400000005443544529112472236_" gradientUnits="userSpaceOnUse" x1="435.233" y1="307.3081" x2="435.4362" y2="290.1173" gradientTransform="matrix(0.884 2.7094 0.9507 -0.3102 -480.699 -978.9931)">
							<stop  offset="0" style="stop-color:#4298B5;stop-opacity:0"/>
							<stop  offset="0.1872" style="stop-color:#4195B2;stop-opacity:9.357613e-02"/>
							<stop  offset="0.3375" style="stop-color:#3D8DA8;stop-opacity:0.1687"/>
							<stop  offset="0.4751" style="stop-color:#377F97;stop-opacity:0.2375"/>
							<stop  offset="0.6051" style="stop-color:#2E6B7F;stop-opacity:0.3026"/>
							<stop  offset="0.7298" style="stop-color:#235160;stop-opacity:0.3649"/>
							<stop  offset="0.8504" style="stop-color:#15313B;stop-opacity:0.4252"/>
							<stop  offset="0.9657" style="stop-color:#050C0F;stop-opacity:0.4828"/>
							<stop  offset="1" style="stop-color:#000000;stop-opacity:0.5"/>
						</linearGradient>
						<polygon style="fill:url(#SVGID_00000128460536641513443400000005443544529112472236_);" points="188.9,82.9 180.1,110.4 
							187.3,132.8 196.6,106.9 						"/>
					</g>
					<g>
						<path class="st1" d="M108.1,61.3c7.7,0,14.6,3.5,19.5,9l11.6-11.8c-7.9-8.1-18.9-13-31.1-13s-23.1,5-31.1,13l11.6,11.8
							C93.5,64.8,100.4,61.3,108.1,61.3z"/>
						<path class="st1" d="M127.5,109.7c-4.9,5.5-11.8,9-19.5,9s-14.6-3.5-19.4-9c-4.6-5.1-7.3-12-7.3-19.7s2.8-14.5,7.3-19.7
							L77,58.6c-8,8-12.9,19.1-12.9,31.4S69,113.4,77,121.5c7.9,8.1,18.9,13,31.1,13s23.1-5,31.1-13L127.5,109.7z"/>
						
							<linearGradient id="SVGID_00000069386594156059875970000001569140958841237410_" gradientUnits="userSpaceOnUse" x1="96.3997" y1="-2570.0952" x2="84.4008" y2="-2582.1042" gradientTransform="matrix(1 0 0 -1 0 -2516)">
							<stop  offset="0" style="stop-color:#4298B5;stop-opacity:0"/>
							<stop  offset="0.1872" style="stop-color:#4195B2;stop-opacity:9.357613e-02"/>
							<stop  offset="0.3375" style="stop-color:#3D8DA8;stop-opacity:0.1687"/>
							<stop  offset="0.4751" style="stop-color:#377F97;stop-opacity:0.2375"/>
							<stop  offset="0.6051" style="stop-color:#2E6B7F;stop-opacity:0.3026"/>
							<stop  offset="0.7298" style="stop-color:#235160;stop-opacity:0.3649"/>
							<stop  offset="0.8504" style="stop-color:#15313B;stop-opacity:0.4252"/>
							<stop  offset="0.9657" style="stop-color:#050C0F;stop-opacity:0.4828"/>
							<stop  offset="1" style="stop-color:#000000;stop-opacity:0.5"/>
						</linearGradient>
						<path style="fill:url(#SVGID_00000069386594156059875970000001569140958841237410_);" d="M77,58.5l11.6,11.8
							c4-4.5,9.3-7.6,15.2-8.6L91.2,48.9C85.9,51.2,81,54.5,77,58.5z"/>
						
							<linearGradient id="SVGID_00000120530029376327872180000007817492788562774148_" gradientUnits="userSpaceOnUse" x1="-2156.696" y1="5695.4863" x2="-2168.696" y2="5683.4863" gradientTransform="matrix(-1 0 0 1 -2037.02 -5569.3101)">
							<stop  offset="0" style="stop-color:#4298B5;stop-opacity:0"/>
							<stop  offset="0.1872" style="stop-color:#4195B2;stop-opacity:9.357613e-02"/>
							<stop  offset="0.3375" style="stop-color:#3D8DA8;stop-opacity:0.1687"/>
							<stop  offset="0.4751" style="stop-color:#377F97;stop-opacity:0.2375"/>
							<stop  offset="0.6051" style="stop-color:#2E6B7F;stop-opacity:0.3026"/>
							<stop  offset="0.7298" style="stop-color:#235160;stop-opacity:0.3649"/>
							<stop  offset="0.8504" style="stop-color:#15313B;stop-opacity:0.4252"/>
							<stop  offset="0.9657" style="stop-color:#050C0F;stop-opacity:0.4828"/>
							<stop  offset="1" style="stop-color:#000000;stop-opacity:0.5"/>
						</linearGradient>
						<path style="fill:url(#SVGID_00000120530029376327872180000007817492788562774148_);" d="M139.1,121.7L127.5,110
							c-4,4.5-9.3,7.6-15.2,8.6l12.6,12.8C130.2,129.1,135.1,125.8,139.1,121.7z"/>
						
							<linearGradient id="SVGID_00000078725861469366196070000007980850018026493355_" gradientUnits="userSpaceOnUse" x1="-2156.7949" y1="-2710.2849" x2="-2168.7949" y2="-2722.2849" gradientTransform="matrix(-1 0 0 -1 -2037.02 -2656.21)">
							<stop  offset="0" style="stop-color:#4298B5;stop-opacity:0"/>
							<stop  offset="0.1872" style="stop-color:#4195B2;stop-opacity:9.357613e-02"/>
							<stop  offset="0.3375" style="stop-color:#3D8DA8;stop-opacity:0.1687"/>
							<stop  offset="0.4751" style="stop-color:#377F97;stop-opacity:0.2375"/>
							<stop  offset="0.6051" style="stop-color:#2E6B7F;stop-opacity:0.3026"/>
							<stop  offset="0.7298" style="stop-color:#235160;stop-opacity:0.3649"/>
							<stop  offset="0.8504" style="stop-color:#15313B;stop-opacity:0.4252"/>
							<stop  offset="0.9657" style="stop-color:#050C0F;stop-opacity:0.4828"/>
							<stop  offset="1" style="stop-color:#000000;stop-opacity:0.5"/>
						</linearGradient>
						<path style="fill:url(#SVGID_00000078725861469366196070000007980850018026493355_);" d="M139.2,58.5l-11.6,11.8
							c-4-4.5-9.3-7.6-15.2-8.6L125,48.9C130.3,51.1,135.1,54.4,139.2,58.5z"/>
					</g>
					<g>
						<polygon class="st1" points="329.8,61.7 360,61.7 360,46.3 317,46.3 309.2,90.2 324.3,92.9 						"/>
						<path class="st1" d="M336.9,73.6c-3.3,0-6.5,0.5-9.5,1.5L324.3,93c3.2-2.8,7.6-4.6,12.6-4.6c8.1,0,14.6,6.6,14.6,14.8
							S345,118,336.9,118c-6.6,0-12.2-4.5-14-10.6h-16.7c1.9,14.8,14.9,26.3,30.7,26.3c17.1,0,31-13.4,31-30S354,73.6,336.9,73.6
							L336.9,73.6z"/>
						
							<linearGradient id="SVGID_00000054988848702711163060000000699672510165606575_" gradientUnits="userSpaceOnUse" x1="2359.2046" y1="-1938.6315" x2="2347.5474" y2="-1950.2985" gradientTransform="matrix(-0.8042 0.5944 -0.5944 -0.8042 1070.7955 -2879.262)">
							<stop  offset="0" style="stop-color:#000000;stop-opacity:0.5"/>
							<stop  offset="3.433001e-02" style="stop-color:#050C0F;stop-opacity:0.4828"/>
							<stop  offset="0.1496" style="stop-color:#15313B;stop-opacity:0.4252"/>
							<stop  offset="0.2702" style="stop-color:#235160;stop-opacity:0.3649"/>
							<stop  offset="0.3949" style="stop-color:#2E6B7F;stop-opacity:0.3026"/>
							<stop  offset="0.5249" style="stop-color:#377F97;stop-opacity:0.2375"/>
							<stop  offset="0.6625" style="stop-color:#3D8DA8;stop-opacity:0.1687"/>
							<stop  offset="0.8128" style="stop-color:#4195B2;stop-opacity:9.357613e-02"/>
							<stop  offset="1" style="stop-color:#4298B5;stop-opacity:0"/>
						</linearGradient>
						<path style="fill:url(#SVGID_00000054988848702711163060000000699672510165606575_);" d="M343.8,74.2l-3.1,14.7
							c-5.8-1.2-10.5-0.2-16.3,3.6l3.1-17.5C332.9,73.4,337.8,73.1,343.8,74.2L343.8,74.2z"/>
						
							<linearGradient id="SVGID_00000145024624280167074770000008093797265558989749_" gradientUnits="userSpaceOnUse" x1="2507.1992" y1="3586.8308" x2="2491.9875" y2="3571.6936" gradientTransform="matrix(0.7054 0.7088 -0.7088 0.7054 1092.7681 -4178.3984)">
							<stop  offset="0" style="stop-color:#4298B5;stop-opacity:0"/>
							<stop  offset="0.1872" style="stop-color:#4195B2;stop-opacity:9.357613e-02"/>
							<stop  offset="0.3375" style="stop-color:#3D8DA8;stop-opacity:0.1687"/>
							<stop  offset="0.4751" style="stop-color:#377F97;stop-opacity:0.2375"/>
							<stop  offset="0.6051" style="stop-color:#2E6B7F;stop-opacity:0.3026"/>
							<stop  offset="0.7298" style="stop-color:#235160;stop-opacity:0.3649"/>
							<stop  offset="0.8504" style="stop-color:#15313B;stop-opacity:0.4252"/>
							<stop  offset="0.9657" style="stop-color:#050C0F;stop-opacity:0.4828"/>
							<stop  offset="1" style="stop-color:#000000;stop-opacity:0.5"/>
						</linearGradient>
						<path style="fill:url(#SVGID_00000145024624280167074770000008093797265558989749_);" d="M306.2,107.4h16.7
							c1.6,5.9,6.2,8.4,8.9,9.7l-11.7,11.8C311.7,123.3,307.6,116.4,306.2,107.4L306.2,107.4z"/>
						
							<linearGradient id="SVGID_00000135670283808809008280000000591973802158582175_" gradientUnits="userSpaceOnUse" x1="342.44" y1="2752" x2="359.99" y2="2752" gradientTransform="matrix(1 0 0 1 0 -2698)">
							<stop  offset="0" style="stop-color:#4298B5;stop-opacity:0"/>
							<stop  offset="0.1872" style="stop-color:#4195B2;stop-opacity:9.357613e-02"/>
							<stop  offset="0.3375" style="stop-color:#3D8DA8;stop-opacity:0.1687"/>
							<stop  offset="0.4751" style="stop-color:#377F97;stop-opacity:0.2375"/>
							<stop  offset="0.6051" style="stop-color:#2E6B7F;stop-opacity:0.3026"/>
							<stop  offset="0.7298" style="stop-color:#235160;stop-opacity:0.3649"/>
							<stop  offset="0.8504" style="stop-color:#15313B;stop-opacity:0.4252"/>
							<stop  offset="0.9657" style="stop-color:#050C0F;stop-opacity:0.4828"/>
							<stop  offset="1" style="stop-color:#000000;stop-opacity:0.5"/>
						</linearGradient>
						<polygon style="fill:url(#SVGID_00000135670283808809008280000000591973802158582175_);" points="342.4,46.4 360,46.3 
							360,61.7 342.4,61.7 						"/>
					</g>
				</g>
				<g>
					<polygon class="st15" points="384.6,115.6 375.7,155.8 27,155.8 36,115.6 24.9,115.6 13.5,166.8 384.3,166.8 395.7,115.6 					
						"/>
					<polygon class="st15" points="47.4,64.4 56.3,24.2 405,24.2 396,64.4 407.1,64.4 418.5,13.2 47.7,13.2 36.3,64.4 					"/>
				</g>
			</g>
		</g>
		<g id="o_00000126310826635577543000000010657438200691908783_">
		</g>
	</g>
</g>
</svg>
